<svg xmlns="http://www.w3.org/2000/svg" width="207.48" height="66" viewBox="0 0 207.48 66" role="img" aria-label="TP VPN">
  <g>
    <rect width="66" height="66" rx="15.84" fill="#FFFFFF"/>
    <path transform="translate(11.85 17.08)" fill="#1677FF" d="M3.02853 0.0561293C3.44733 -0.0231548 3.87503 0.00639278 4.29926 0.0014683C13.5771 0.00639278 22.8549 0.00639302 32.1327 0.00787036C32.8121 -0.00690307 33.4929 0.0300295 34.1639 0.142308C35.9409 0.499332 37.5993 1.38722 38.9145 2.62523C40.3667 4.01344 41.4491 5.80497 41.9203 7.759C42.4449 9.80857 42.2876 11.9832 41.7126 14.0047C41.5361 14.5774 41.3571 15.1531 41.0911 15.6923C40.2911 17.5651 38.9946 19.2301 37.357 20.4499C35.7387 21.6283 33.7594 22.3837 31.7381 22.3463C29.5789 22.3512 27.4196 22.3487 25.2604 22.3492C23.8527 22.2867 22.4722 22.7215 21.2232 23.3376C20.3253 23.8089 19.4714 24.3629 18.6659 24.9779C18.4424 25.1493 18.2348 25.3734 17.948 25.4325C17.6488 25.4881 17.4441 25.1104 17.5762 24.8647C18.305 22.9121 19.1129 20.9901 19.9015 19.0612C20.2655 18.1895 20.7085 17.3268 21.3799 16.6487C22.3154 15.6332 23.6727 14.9886 25.0651 15.0034C26.9756 15.0113 28.8866 15.0034 30.7972 15.0039C31.752 14.9778 32.7226 14.6311 33.3999 13.9441C34.106 13.2823 34.5372 12.3575 34.6568 11.4046C34.7765 10.4625 34.55 9.47764 34.0061 8.69563C33.4622 7.86635 32.5416 7.28231 31.5482 7.18283C31.1853 7.12719 30.8175 7.16412 30.453 7.15526C27.651 7.15723 24.8495 7.15181 22.0474 7.15476C21.8536 7.1592 21.6558 7.13605 21.4655 7.17939C21.2509 7.23405 21.2049 7.47978 21.1258 7.65312C17.7868 15.78 14.3716 23.8763 11.0435 32.0076C10.7033 32.8266 10.4116 33.6992 9.78812 34.3566C9.46278 34.6782 9.11666 34.9884 8.70924 35.2036C7.92158 35.6143 6.98609 35.7537 6.11883 35.5419C5.30002 35.3607 4.57517 34.8353 4.11039 34.1448C3.58677 33.322 3.44437 32.2863 3.66687 31.3438C3.82262 30.6603 4.14599 30.0319 4.39815 29.3814C4.79124 28.4822 5.14427 27.5662 5.53044 26.6641C5.90918 25.6915 6.33985 24.7401 6.72354 23.769C7.49883 21.909 8.27808 20.052 9.04991 18.1905C9.80938 16.3192 10.604 14.4627 11.3768 12.5968C11.979 11.1293 12.6099 9.67364 13.2033 8.20269C13.318 7.95253 13.4381 7.70286 13.5143 7.43792C13.5563 7.28329 13.3971 7.14048 13.2468 7.15427C9.94981 7.1523 6.65283 7.16067 3.35536 7.15378C2.5954 7.12472 1.84285 6.84058 1.26632 6.34419C0.603765 5.79708 0.16272 4.99981 0.0287247 4.15477C-0.0128088 3.74604 -0.016766 3.32943 0.06729 2.92513C0.267541 1.95501 0.903895 1.11292 1.71825 0.561381C2.1148 0.307278 2.55733 0.114731 3.02853 0.0561293Z"/>
  </g>
  <path fill="#FFFFFF" d="M86.109 24.121L77.880 24.121L77.880 19.555L99.843 19.555L99.843 24.121L91.632 24.121L91.632 46.445L86.109 46.445L86.109 24.121ZM108.398 46.445L102.894 46.445L102.894 19.555L113.379 19.555Q116.447 19.555 118.594 20.719Q120.742 21.883 121.870 23.931Q122.998 25.980 122.998 28.633L122.998 28.633Q122.998 31.304 121.852 33.334Q120.706 35.364 118.531 36.510Q116.357 37.656 113.253 37.656L113.253 37.656L106.503 37.656L106.503 33.217L112.368 33.217Q114.065 33.217 115.157 32.630Q116.248 32.044 116.781 31.015Q117.313 29.986 117.313 28.633L117.313 28.633Q117.313 27.279 116.781 26.259Q116.248 25.240 115.148 24.671Q114.047 24.103 112.350 24.103L112.350 24.103L108.398 24.103L108.398 46.445ZM149.185 46.445L141.985 46.445L132.564 19.555L138.682 19.555L142.977 32.531Q143.753 34.985 144.547 37.936Q145.341 40.886 146.226 44.388L146.226 44.388L145.035 44.388Q145.901 40.850 146.659 37.918Q147.417 34.985 148.157 32.531L148.157 32.531L152.307 19.555L158.389 19.555L149.185 46.445ZM166.475 46.445L160.971 46.445L160.971 19.555L171.456 19.555Q174.524 19.555 176.671 20.719Q178.819 21.883 179.947 23.931Q181.075 25.980 181.075 28.633L181.075 28.633Q181.075 31.304 179.929 33.334Q178.783 35.364 176.608 36.510Q174.434 37.656 171.330 37.656L171.330 37.656L164.580 37.656L164.580 33.217L170.445 33.217Q172.142 33.217 173.234 32.630Q174.325 32.044 174.858 31.015Q175.390 29.986 175.390 28.633L175.390 28.633Q175.390 27.279 174.858 26.259Q174.325 25.240 173.225 24.671Q172.124 24.103 170.427 24.103L170.427 24.103L166.475 24.103L166.475 46.445ZM189.810 46.445L184.180 46.445L184.180 19.555L190.316 19.555L198.816 33.162Q199.465 34.209 200.133 35.436Q200.801 36.664 201.496 38.161Q202.190 39.659 202.876 41.536L202.876 41.536L202.317 41.536Q202.190 40.038 202.091 38.342Q201.992 36.645 201.920 35.093Q201.848 33.541 201.848 32.459L201.848 32.459L201.848 19.555L207.478 19.555L207.478 46.445L201.324 46.445L193.600 34.101Q192.752 32.711 192.030 31.403Q191.308 30.094 190.523 28.515Q189.738 26.936 188.655 24.735L188.655 24.735L189.359 24.735Q189.467 26.684 189.576 28.470Q189.684 30.257 189.747 31.710Q189.810 33.162 189.810 34.083L189.810 34.083L189.810 46.445Z"/>
</svg>
